  0
SECTION
  2
BLOCKS
  0
ENDSEC
  0
SECTION
  2
ENTITIES
  0
LINE
  8
0
 10
3.66444
 20
-104.936
 11
7.32442
 21
-104.744
  0
LINE
  8
0
 10
7.32442
 20
-104.744
 11
10.9755
 21
-104.425
  0
LINE
  8
0
 10
10.9755
 20
-104.425
 11
14.6132
 21
-103.978
  0
LINE
  8
0
 10
14.6132
 20
-103.978
 11
18.233
 21
-103.405
  0
LINE
  8
0
 10
18.233
 20
-103.405
 11
21.8307
 21
-102.705
  0
LINE
  8
0
 10
21.8307
 20
-102.705
 11
25.4018
 21
-101.881
  0
LINE
  8
0
 10
25.4018
 20
-101.881
 11
28.9419
 21
-100.932
  0
LINE
  8
0
 10
28.9419
 20
-100.932
 11
32.4468
 21
-99.8609
  0
LINE
  8
0
 10
32.4468
 20
-99.8609
 11
35.9121
 21
-98.6677
  0
LINE
  8
0
 10
35.9121
 20
-98.6677
 11
39.3337
 21
-97.3543
  0
LINE
  8
0
 10
39.3337
 20
-97.3543
 11
42.7073
 21
-95.9223
  0
LINE
  8
0
 10
42.7073
 20
-95.9223
 11
46.029
 21
-94.3734
  0
LINE
  8
0
 10
46.029
 20
-94.3734
 11
49.2945
 21
-92.7095
  0
LINE
  8
0
 10
49.2945
 20
-92.7095
 11
52.5
 21
-90.9327
  0
LINE
  8
0
 10
52.5
 20
-90.9327
 11
55.6415
 21
-89.045
  0
LINE
  8
0
 10
55.6415
 20
-89.045
 11
58.7152
 21
-87.0489
  0
LINE
  8
0
 10
58.7152
 20
-87.0489
 11
61.7174
 21
-84.9468
  0
LINE
  8
0
 10
61.7174
 20
-84.9468
 11
64.6444
 21
-82.7411
  0
LINE
  8
0
 10
64.6444
 20
-82.7411
 11
67.4927
 21
-80.4347
  0
LINE
  8
0
 10
67.4927
 20
-80.4347
 11
70.2587
 21
-78.0302
  0
LINE
  8
0
 10
70.2587
 20
-78.0302
 11
72.9391
 21
-75.5307
  0
LINE
  8
0
 10
72.9391
 20
-75.5307
 11
75.5307
 21
-72.9391
  0
LINE
  8
0
 10
75.5307
 20
-72.9391
 11
78.0302
 21
-70.2587
  0
LINE
  8
0
 10
78.0302
 20
-70.2587
 11
80.4347
 21
-67.4927
  0
LINE
  8
0
 10
80.4347
 20
-67.4927
 11
82.7411
 21
-64.6444
  0
LINE
  8
0
 10
82.7411
 20
-64.6444
 11
84.9468
 21
-61.7174
  0
LINE
  8
0
 10
84.9468
 20
-61.7174
 11
87.0489
 21
-58.7152
  0
LINE
  8
0
 10
87.0489
 20
-58.7152
 11
89.045
 21
-55.6415
  0
LINE
  8
0
 10
89.045
 20
-55.6415
 11
90.9327
 21
-52.5
  0
LINE
  8
0
 10
90.9327
 20
-52.5
 11
92.7095
 21
-49.2945
  0
LINE
  8
0
 10
92.7095
 20
-49.2945
 11
94.3734
 21
-46.029
  0
LINE
  8
0
 10
94.3734
 20
-46.029
 11
95.9223
 21
-42.7073
  0
LINE
  8
0
 10
95.9223
 20
-42.7073
 11
97.3543
 21
-39.3337
  0
LINE
  8
0
 10
97.3543
 20
-39.3337
 11
98.6677
 21
-35.9121
  0
LINE
  8
0
 10
98.6677
 20
-35.9121
 11
99.8609
 21
-32.4468
  0
LINE
  8
0
 10
99.8609
 20
-32.4468
 11
100.932
 21
-28.9419
  0
LINE
  8
0
 10
100.932
 20
-28.9419
 11
101.085
 21
-28.3721
  0
LINE
  8
0
 10
101.085
 20
-28.3721
 11
77
 21
-28.3721
  0
LINE
  8
0
 10
77
 20
-28.3721
 11
77
 21
28.3721
  0
LINE
  8
0
 10
77
 20
28.3721
 11
101.085
 21
28.3721
  0
LINE
  8
0
 10
101.085
 20
28.3721
 11
100.932
 21
28.9419
  0
LINE
  8
0
 10
100.932
 20
28.9419
 11
99.8609
 21
32.4468
  0
LINE
  8
0
 10
99.8609
 20
32.4468
 11
98.6677
 21
35.9121
  0
LINE
  8
0
 10
98.6677
 20
35.9121
 11
97.3543
 21
39.3337
  0
LINE
  8
0
 10
97.3543
 20
39.3337
 11
95.9223
 21
42.7073
  0
LINE
  8
0
 10
95.9223
 20
42.7073
 11
94.3734
 21
46.029
  0
LINE
  8
0
 10
94.3734
 20
46.029
 11
92.7095
 21
49.2945
  0
LINE
  8
0
 10
92.7095
 20
49.2945
 11
90.9327
 21
52.5
  0
LINE
  8
0
 10
90.9327
 20
52.5
 11
89.045
 21
55.6415
  0
LINE
  8
0
 10
89.045
 20
55.6415
 11
87.0489
 21
58.7152
  0
LINE
  8
0
 10
87.0489
 20
58.7152
 11
84.9468
 21
61.7174
  0
LINE
  8
0
 10
84.9468
 20
61.7174
 11
82.7411
 21
64.6444
  0
LINE
  8
0
 10
82.7411
 20
64.6444
 11
80.4347
 21
67.4927
  0
LINE
  8
0
 10
80.4347
 20
67.4927
 11
78.0302
 21
70.2587
  0
LINE
  8
0
 10
78.0302
 20
70.2587
 11
75.5307
 21
72.9391
  0
LINE
  8
0
 10
75.5307
 20
72.9391
 11
72.9391
 21
75.5307
  0
LINE
  8
0
 10
72.9391
 20
75.5307
 11
70.2587
 21
78.0302
  0
LINE
  8
0
 10
70.2587
 20
78.0302
 11
67.4927
 21
80.4347
  0
LINE
  8
0
 10
67.4927
 20
80.4347
 11
64.6444
 21
82.7411
  0
LINE
  8
0
 10
64.6444
 20
82.7411
 11
61.7174
 21
84.9468
  0
LINE
  8
0
 10
61.7174
 20
84.9468
 11
58.7152
 21
87.0489
  0
LINE
  8
0
 10
58.7152
 20
87.0489
 11
55.6415
 21
89.045
  0
LINE
  8
0
 10
55.6415
 20
89.045
 11
52.5
 21
90.9327
  0
LINE
  8
0
 10
52.5
 20
90.9327
 11
49.2945
 21
92.7095
  0
LINE
  8
0
 10
49.2945
 20
92.7095
 11
46.029
 21
94.3734
  0
LINE
  8
0
 10
46.029
 20
94.3734
 11
42.7073
 21
95.9223
  0
LINE
  8
0
 10
42.7073
 20
95.9223
 11
39.3337
 21
97.3543
  0
LINE
  8
0
 10
39.3337
 20
97.3543
 11
35.9121
 21
98.6677
  0
LINE
  8
0
 10
35.9121
 20
98.6677
 11
32.4468
 21
99.8609
  0
LINE
  8
0
 10
32.4468
 20
99.8609
 11
28.9419
 21
100.932
  0
LINE
  8
0
 10
28.9419
 20
100.932
 11
25.4018
 21
101.881
  0
LINE
  8
0
 10
25.4018
 20
101.881
 11
21.8307
 21
102.705
  0
LINE
  8
0
 10
21.8307
 20
102.705
 11
18.233
 21
103.405
  0
LINE
  8
0
 10
18.233
 20
103.405
 11
14.6132
 21
103.978
  0
LINE
  8
0
 10
14.6132
 20
103.978
 11
10.9755
 21
104.425
  0
LINE
  8
0
 10
10.9755
 20
104.425
 11
7.32442
 21
104.744
  0
LINE
  8
0
 10
7.32442
 20
104.744
 11
3.66444
 21
104.936
  0
LINE
  8
0
 10
3.66444
 20
104.936
 11
0
 21
105
  0
LINE
  8
0
 10
0
 20
105
 11
-3.66444
 21
104.936
  0
LINE
  8
0
 10
-3.66444
 20
104.936
 11
-7.32442
 21
104.744
  0
LINE
  8
0
 10
-7.32442
 20
104.744
 11
-10.9755
 21
104.425
  0
LINE
  8
0
 10
-10.9755
 20
104.425
 11
-14.6132
 21
103.978
  0
LINE
  8
0
 10
-14.6132
 20
103.978
 11
-18.233
 21
103.405
  0
LINE
  8
0
 10
-18.233
 20
103.405
 11
-21.8307
 21
102.705
  0
LINE
  8
0
 10
-21.8307
 20
102.705
 11
-25.4018
 21
101.881
  0
LINE
  8
0
 10
-25.4018
 20
101.881
 11
-28.9419
 21
100.932
  0
LINE
  8
0
 10
-28.9419
 20
100.932
 11
-32.4468
 21
99.8609
  0
LINE
  8
0
 10
-32.4468
 20
99.8609
 11
-35.9121
 21
98.6677
  0
LINE
  8
0
 10
-35.9121
 20
98.6677
 11
-39.3337
 21
97.3543
  0
LINE
  8
0
 10
-39.3337
 20
97.3543
 11
-42.7073
 21
95.9223
  0
LINE
  8
0
 10
-42.7073
 20
95.9223
 11
-46.029
 21
94.3734
  0
LINE
  8
0
 10
-46.029
 20
94.3734
 11
-49.2945
 21
92.7095
  0
LINE
  8
0
 10
-49.2945
 20
92.7095
 11
-52.5
 21
90.9327
  0
LINE
  8
0
 10
-52.5
 20
90.9327
 11
-55.6415
 21
89.045
  0
LINE
  8
0
 10
-55.6415
 20
89.045
 11
-58.7152
 21
87.0489
  0
LINE
  8
0
 10
-58.7152
 20
87.0489
 11
-61.7174
 21
84.9468
  0
LINE
  8
0
 10
-61.7174
 20
84.9468
 11
-64.6444
 21
82.7411
  0
LINE
  8
0
 10
-64.6444
 20
82.7411
 11
-67.4927
 21
80.4347
  0
LINE
  8
0
 10
-67.4927
 20
80.4347
 11
-70.2587
 21
78.0302
  0
LINE
  8
0
 10
-70.2587
 20
78.0302
 11
-72.9391
 21
75.5307
  0
LINE
  8
0
 10
-72.9391
 20
75.5307
 11
-75.5307
 21
72.9391
  0
LINE
  8
0
 10
-75.5307
 20
72.9391
 11
-78.0302
 21
70.2587
  0
LINE
  8
0
 10
-78.0302
 20
70.2587
 11
-80.4347
 21
67.4927
  0
LINE
  8
0
 10
-80.4347
 20
67.4927
 11
-82.7411
 21
64.6444
  0
LINE
  8
0
 10
-82.7411
 20
64.6444
 11
-84.9468
 21
61.7174
  0
LINE
  8
0
 10
-84.9468
 20
61.7174
 11
-87.0489
 21
58.7152
  0
LINE
  8
0
 10
-87.0489
 20
58.7152
 11
-89.045
 21
55.6415
  0
LINE
  8
0
 10
-89.045
 20
55.6415
 11
-90.9327
 21
52.5
  0
LINE
  8
0
 10
-90.9327
 20
52.5
 11
-92.7095
 21
49.2945
  0
LINE
  8
0
 10
-92.7095
 20
49.2945
 11
-94.3734
 21
46.029
  0
LINE
  8
0
 10
-94.3734
 20
46.029
 11
-95.9223
 21
42.7073
  0
LINE
  8
0
 10
-95.9223
 20
42.7073
 11
-97.3543
 21
39.3337
  0
LINE
  8
0
 10
-97.3543
 20
39.3337
 11
-98.6677
 21
35.9121
  0
LINE
  8
0
 10
-98.6677
 20
35.9121
 11
-99.8609
 21
32.4468
  0
LINE
  8
0
 10
-99.8609
 20
32.4468
 11
-100.932
 21
28.9419
  0
LINE
  8
0
 10
-100.932
 20
28.9419
 11
-101.085
 21
28.3721
  0
LINE
  8
0
 10
-101.085
 20
28.3721
 11
-77
 21
28.3721
  0
LINE
  8
0
 10
-77
 20
28.3721
 11
-77
 21
-28.3721
  0
LINE
  8
0
 10
-77
 20
-28.3721
 11
-101.085
 21
-28.3721
  0
LINE
  8
0
 10
-101.085
 20
-28.3721
 11
-100.932
 21
-28.9419
  0
LINE
  8
0
 10
-100.932
 20
-28.9419
 11
-99.8609
 21
-32.4468
  0
LINE
  8
0
 10
-99.8609
 20
-32.4468
 11
-98.6677
 21
-35.9121
  0
LINE
  8
0
 10
-98.6677
 20
-35.9121
 11
-97.3543
 21
-39.3337
  0
LINE
  8
0
 10
-97.3543
 20
-39.3337
 11
-95.9223
 21
-42.7073
  0
LINE
  8
0
 10
-95.9223
 20
-42.7073
 11
-94.3734
 21
-46.029
  0
LINE
  8
0
 10
-94.3734
 20
-46.029
 11
-92.7095
 21
-49.2945
  0
LINE
  8
0
 10
-92.7095
 20
-49.2945
 11
-90.9327
 21
-52.5
  0
LINE
  8
0
 10
-90.9327
 20
-52.5
 11
-89.045
 21
-55.6415
  0
LINE
  8
0
 10
-89.045
 20
-55.6415
 11
-87.0489
 21
-58.7152
  0
LINE
  8
0
 10
-87.0489
 20
-58.7152
 11
-84.9468
 21
-61.7174
  0
LINE
  8
0
 10
-84.9468
 20
-61.7174
 11
-82.7411
 21
-64.6444
  0
LINE
  8
0
 10
-82.7411
 20
-64.6444
 11
-80.4347
 21
-67.4927
  0
LINE
  8
0
 10
-80.4347
 20
-67.4927
 11
-78.0302
 21
-70.2587
  0
LINE
  8
0
 10
-78.0302
 20
-70.2587
 11
-75.5307
 21
-72.9391
  0
LINE
  8
0
 10
-75.5307
 20
-72.9391
 11
-72.9391
 21
-75.5307
  0
LINE
  8
0
 10
-72.9391
 20
-75.5307
 11
-70.2587
 21
-78.0302
  0
LINE
  8
0
 10
-70.2587
 20
-78.0302
 11
-67.4927
 21
-80.4347
  0
LINE
  8
0
 10
-67.4927
 20
-80.4347
 11
-64.6444
 21
-82.7411
  0
LINE
  8
0
 10
-64.6444
 20
-82.7411
 11
-61.7174
 21
-84.9468
  0
LINE
  8
0
 10
-61.7174
 20
-84.9468
 11
-58.7152
 21
-87.0489
  0
LINE
  8
0
 10
-58.7152
 20
-87.0489
 11
-55.6415
 21
-89.045
  0
LINE
  8
0
 10
-55.6415
 20
-89.045
 11
-52.5
 21
-90.9327
  0
LINE
  8
0
 10
-52.5
 20
-90.9327
 11
-49.2945
 21
-92.7095
  0
LINE
  8
0
 10
-49.2945
 20
-92.7095
 11
-46.029
 21
-94.3734
  0
LINE
  8
0
 10
-46.029
 20
-94.3734
 11
-42.7073
 21
-95.9223
  0
LINE
  8
0
 10
-42.7073
 20
-95.9223
 11
-39.3337
 21
-97.3543
  0
LINE
  8
0
 10
-39.3337
 20
-97.3543
 11
-35.9121
 21
-98.6677
  0
LINE
  8
0
 10
-35.9121
 20
-98.6677
 11
-32.4468
 21
-99.8609
  0
LINE
  8
0
 10
-32.4468
 20
-99.8609
 11
-28.9419
 21
-100.932
  0
LINE
  8
0
 10
-28.9419
 20
-100.932
 11
-25.4018
 21
-101.881
  0
LINE
  8
0
 10
-25.4018
 20
-101.881
 11
-21.8307
 21
-102.705
  0
LINE
  8
0
 10
-21.8307
 20
-102.705
 11
-18.233
 21
-103.405
  0
LINE
  8
0
 10
-18.233
 20
-103.405
 11
-14.6132
 21
-103.978
  0
LINE
  8
0
 10
-14.6132
 20
-103.978
 11
-10.9755
 21
-104.425
  0
LINE
  8
0
 10
-10.9755
 20
-104.425
 11
-7.32442
 21
-104.744
  0
LINE
  8
0
 10
-7.32442
 20
-104.744
 11
-3.66444
 21
-104.936
  0
LINE
  8
0
 10
-3.66444
 20
-104.936
 11
0
 21
-105
  0
LINE
  8
0
 10
0
 20
-105
 11
3.66444
 21
-104.936
  0
LINE
  8
0
 10
-0.650558
 20
96.4294
 11
-1.20207
 21
96.7979
  0
LINE
  8
0
 10
-1.20207
 20
96.7979
 11
-1.57059
 21
97.3494
  0
LINE
  8
0
 10
-1.57059
 20
97.3494
 11
-1.7
 21
98
  0
LINE
  8
0
 10
-1.7
 20
98
 11
-1.57059
 21
98.6506
  0
LINE
  8
0
 10
-1.57059
 20
98.6506
 11
-1.20207
 21
99.2021
  0
LINE
  8
0
 10
-1.20207
 20
99.2021
 11
-0.650558
 21
99.5706
  0
LINE
  8
0
 10
-0.650558
 20
99.5706
 11
0
 21
99.7
  0
LINE
  8
0
 10
0
 20
99.7
 11
0.650558
 21
99.5706
  0
LINE
  8
0
 10
0.650558
 20
99.5706
 11
1.20207
 21
99.2021
  0
LINE
  8
0
 10
1.20207
 20
99.2021
 11
1.57059
 21
98.6506
  0
LINE
  8
0
 10
1.57059
 20
98.6506
 11
1.7
 21
98
  0
LINE
  8
0
 10
1.7
 20
98
 11
1.57059
 21
97.3494
  0
LINE
  8
0
 10
1.57059
 20
97.3494
 11
1.20207
 21
96.7979
  0
LINE
  8
0
 10
1.20207
 20
96.7979
 11
0.650558
 21
96.4294
  0
LINE
  8
0
 10
0.650558
 20
96.4294
 11
0
 21
96.3
  0
LINE
  8
0
 10
0
 20
96.3
 11
-0.650558
 21
96.4294
  0
LINE
  8
0
 10
-39.5358
 20
85.2066
 11
-39.9899
 21
85.51
  0
LINE
  8
0
 10
-39.9899
 20
85.51
 11
-40.2934
 21
85.9642
  0
LINE
  8
0
 10
-40.2934
 20
85.9642
 11
-40.4
 21
86.5
  0
LINE
  8
0
 10
-40.4
 20
86.5
 11
-40.2934
 21
87.0358
  0
LINE
  8
0
 10
-40.2934
 20
87.0358
 11
-39.9899
 21
87.4899
  0
LINE
  8
0
 10
-39.9899
 20
87.4899
 11
-39.5358
 21
87.7934
  0
LINE
  8
0
 10
-39.5358
 20
87.7934
 11
-39
 21
87.9
  0
LINE
  8
0
 10
-39
 20
87.9
 11
-38.4642
 21
87.7934
  0
LINE
  8
0
 10
-38.4642
 20
87.7934
 11
-38.01
 21
87.4899
  0
LINE
  8
0
 10
-38.01
 20
87.4899
 11
-37.7066
 21
87.0358
  0
LINE
  8
0
 10
-37.7066
 20
87.0358
 11
-37.6
 21
86.5
  0
LINE
  8
0
 10
-37.6
 20
86.5
 11
-37.7066
 21
85.9642
  0
LINE
  8
0
 10
-37.7066
 20
85.9642
 11
-38.01
 21
85.51
  0
LINE
  8
0
 10
-38.01
 20
85.51
 11
-38.4642
 21
85.2066
  0
LINE
  8
0
 10
-38.4642
 20
85.2066
 11
-39
 21
85.1
  0
LINE
  8
0
 10
-39
 20
85.1
 11
-39.5358
 21
85.2066
  0
LINE
  8
0
 10
18.4642
 20
85.2066
 11
18.01
 21
85.51
  0
LINE
  8
0
 10
18.01
 20
85.51
 11
17.7066
 21
85.9642
  0
LINE
  8
0
 10
17.7066
 20
85.9642
 11
17.6
 21
86.5
  0
LINE
  8
0
 10
17.6
 20
86.5
 11
17.7066
 21
87.0358
  0
LINE
  8
0
 10
17.7066
 20
87.0358
 11
18.01
 21
87.4899
  0
LINE
  8
0
 10
18.01
 20
87.4899
 11
18.4642
 21
87.7934
  0
LINE
  8
0
 10
18.4642
 20
87.7934
 11
19
 21
87.9
  0
LINE
  8
0
 10
19
 20
87.9
 11
19.5358
 21
87.7934
  0
LINE
  8
0
 10
19.5358
 20
87.7934
 11
19.9899
 21
87.4899
  0
LINE
  8
0
 10
19.9899
 20
87.4899
 11
20.2934
 21
87.0358
  0
LINE
  8
0
 10
20.2934
 20
87.0358
 11
20.4
 21
86.5
  0
LINE
  8
0
 10
20.4
 20
86.5
 11
20.2934
 21
85.9642
  0
LINE
  8
0
 10
20.2934
 20
85.9642
 11
19.9899
 21
85.51
  0
LINE
  8
0
 10
19.9899
 20
85.51
 11
19.5358
 21
85.2066
  0
LINE
  8
0
 10
19.5358
 20
85.2066
 11
19
 21
85.1
  0
LINE
  8
0
 10
19
 20
85.1
 11
18.4642
 21
85.2066
  0
LINE
  8
0
 10
13.3494
 20
84.4294
 11
12.7979
 21
84.7979
  0
LINE
  8
0
 10
12.7979
 20
84.7979
 11
12.4294
 21
85.3494
  0
LINE
  8
0
 10
12.4294
 20
85.3494
 11
12.3
 21
86
  0
LINE
  8
0
 10
12.3
 20
86
 11
12.4294
 21
86.6506
  0
LINE
  8
0
 10
12.4294
 20
86.6506
 11
12.7979
 21
87.2021
  0
LINE
  8
0
 10
12.7979
 20
87.2021
 11
13.3494
 21
87.5706
  0
LINE
  8
0
 10
13.3494
 20
87.5706
 11
14
 21
87.7
  0
LINE
  8
0
 10
14
 20
87.7
 11
14.6506
 21
87.5706
  0
LINE
  8
0
 10
14.6506
 20
87.5706
 11
15.2021
 21
87.2021
  0
LINE
  8
0
 10
15.2021
 20
87.2021
 11
15.5706
 21
86.6506
  0
LINE
  8
0
 10
15.5706
 20
86.6506
 11
15.7
 21
86
  0
LINE
  8
0
 10
15.7
 20
86
 11
15.5706
 21
85.3494
  0
LINE
  8
0
 10
15.5706
 20
85.3494
 11
15.2021
 21
84.7979
  0
LINE
  8
0
 10
15.2021
 20
84.7979
 11
14.6506
 21
84.4294
  0
LINE
  8
0
 10
14.6506
 20
84.4294
 11
14
 21
84.3
  0
LINE
  8
0
 10
14
 20
84.3
 11
13.3494
 21
84.4294
  0
LINE
  8
0
 10
-14.6506
 20
84.4294
 11
-15.2021
 21
84.7979
  0
LINE
  8
0
 10
-15.2021
 20
84.7979
 11
-15.5706
 21
85.3494
  0
LINE
  8
0
 10
-15.5706
 20
85.3494
 11
-15.7
 21
86
  0
LINE
  8
0
 10
-15.7
 20
86
 11
-15.5706
 21
86.6506
  0
LINE
  8
0
 10
-15.5706
 20
86.6506
 11
-15.2021
 21
87.2021
  0
LINE
  8
0
 10
-15.2021
 20
87.2021
 11
-14.6506
 21
87.5706
  0
LINE
  8
0
 10
-14.6506
 20
87.5706
 11
-14
 21
87.7
  0
LINE
  8
0
 10
-14
 20
87.7
 11
-13.3494
 21
87.5706
  0
LINE
  8
0
 10
-13.3494
 20
87.5706
 11
-12.7979
 21
87.2021
  0
LINE
  8
0
 10
-12.7979
 20
87.2021
 11
-12.4294
 21
86.6506
  0
LINE
  8
0
 10
-12.4294
 20
86.6506
 11
-12.3
 21
86
  0
LINE
  8
0
 10
-12.3
 20
86
 11
-12.4294
 21
85.3494
  0
LINE
  8
0
 10
-12.4294
 20
85.3494
 11
-12.7979
 21
84.7979
  0
LINE
  8
0
 10
-12.7979
 20
84.7979
 11
-13.3494
 21
84.4294
  0
LINE
  8
0
 10
-13.3494
 20
84.4294
 11
-14
 21
84.3
  0
LINE
  8
0
 10
-14
 20
84.3
 11
-14.6506
 21
84.4294
  0
LINE
  8
0
 10
14.3494
 20
64.4294
 11
13.7979
 21
64.7979
  0
LINE
  8
0
 10
13.7979
 20
64.7979
 11
13.4294
 21
65.3494
  0
LINE
  8
0
 10
13.4294
 20
65.3494
 11
13.3
 21
66
  0
LINE
  8
0
 10
13.3
 20
66
 11
13.4294
 21
66.6506
  0
LINE
  8
0
 10
13.4294
 20
66.6506
 11
13.7979
 21
67.2021
  0
LINE
  8
0
 10
13.7979
 20
67.2021
 11
14.3494
 21
67.5706
  0
LINE
  8
0
 10
14.3494
 20
67.5706
 11
15
 21
67.7
  0
LINE
  8
0
 10
15
 20
67.7
 11
15.6506
 21
67.5706
  0
LINE
  8
0
 10
15.6506
 20
67.5706
 11
16.2021
 21
67.2021
  0
LINE
  8
0
 10
16.2021
 20
67.2021
 11
16.5706
 21
66.6506
  0
LINE
  8
0
 10
16.5706
 20
66.6506
 11
16.7
 21
66
  0
LINE
  8
0
 10
16.7
 20
66
 11
16.5706
 21
65.3494
  0
LINE
  8
0
 10
16.5706
 20
65.3494
 11
16.2021
 21
64.7979
  0
LINE
  8
0
 10
16.2021
 20
64.7979
 11
15.6506
 21
64.4294
  0
LINE
  8
0
 10
15.6506
 20
64.4294
 11
15
 21
64.3
  0
LINE
  8
0
 10
15
 20
64.3
 11
14.3494
 21
64.4294
  0
LINE
  8
0
 10
-15.6506
 20
64.4294
 11
-16.2021
 21
64.7979
  0
LINE
  8
0
 10
-16.2021
 20
64.7979
 11
-16.5706
 21
65.3494
  0
LINE
  8
0
 10
-16.5706
 20
65.3494
 11
-16.7
 21
66
  0
LINE
  8
0
 10
-16.7
 20
66
 11
-16.5706
 21
66.6506
  0
LINE
  8
0
 10
-16.5706
 20
66.6506
 11
-16.2021
 21
67.2021
  0
LINE
  8
0
 10
-16.2021
 20
67.2021
 11
-15.6506
 21
67.5706
  0
LINE
  8
0
 10
-15.6506
 20
67.5706
 11
-15
 21
67.7
  0
LINE
  8
0
 10
-15
 20
67.7
 11
-14.3494
 21
67.5706
  0
LINE
  8
0
 10
-14.3494
 20
67.5706
 11
-13.7979
 21
67.2021
  0
LINE
  8
0
 10
-13.7979
 20
67.2021
 11
-13.4294
 21
66.6506
  0
LINE
  8
0
 10
-13.4294
 20
66.6506
 11
-13.3
 21
66
  0
LINE
  8
0
 10
-13.3
 20
66
 11
-13.4294
 21
65.3494
  0
LINE
  8
0
 10
-13.4294
 20
65.3494
 11
-13.7979
 21
64.7979
  0
LINE
  8
0
 10
-13.7979
 20
64.7979
 11
-14.3494
 21
64.4294
  0
LINE
  8
0
 10
-14.3494
 20
64.4294
 11
-15
 21
64.3
  0
LINE
  8
0
 10
-15
 20
64.3
 11
-15.6506
 21
64.4294
  0
LINE
  8
0
 10
-39.5358
 20
36.2066
 11
-39.9899
 21
36.51
  0
LINE
  8
0
 10
-39.9899
 20
36.51
 11
-40.2934
 21
36.9642
  0
LINE
  8
0
 10
-40.2934
 20
36.9642
 11
-40.4
 21
37.5
  0
LINE
  8
0
 10
-40.4
 20
37.5
 11
-40.2934
 21
38.0358
  0
LINE
  8
0
 10
-40.2934
 20
38.0358
 11
-39.9899
 21
38.4899
  0
LINE
  8
0
 10
-39.9899
 20
38.4899
 11
-39.5358
 21
38.7934
  0
LINE
  8
0
 10
-39.5358
 20
38.7934
 11
-39
 21
38.9
  0
LINE
  8
0
 10
-39
 20
38.9
 11
-38.4642
 21
38.7934
  0
LINE
  8
0
 10
-38.4642
 20
38.7934
 11
-38.01
 21
38.4899
  0
LINE
  8
0
 10
-38.01
 20
38.4899
 11
-37.7066
 21
38.0358
  0
LINE
  8
0
 10
-37.7066
 20
38.0358
 11
-37.6
 21
37.5
  0
LINE
  8
0
 10
-37.6
 20
37.5
 11
-37.7066
 21
36.9642
  0
LINE
  8
0
 10
-37.7066
 20
36.9642
 11
-38.01
 21
36.51
  0
LINE
  8
0
 10
-38.01
 20
36.51
 11
-38.4642
 21
36.2066
  0
LINE
  8
0
 10
-38.4642
 20
36.2066
 11
-39
 21
36.1
  0
LINE
  8
0
 10
-39
 20
36.1
 11
-39.5358
 21
36.2066
  0
LINE
  8
0
 10
18.4642
 20
36.2066
 11
18.01
 21
36.51
  0
LINE
  8
0
 10
18.01
 20
36.51
 11
17.7066
 21
36.9642
  0
LINE
  8
0
 10
17.7066
 20
36.9642
 11
17.6
 21
37.5
  0
LINE
  8
0
 10
17.6
 20
37.5
 11
17.7066
 21
38.0358
  0
LINE
  8
0
 10
17.7066
 20
38.0358
 11
18.01
 21
38.4899
  0
LINE
  8
0
 10
18.01
 20
38.4899
 11
18.4642
 21
38.7934
  0
LINE
  8
0
 10
18.4642
 20
38.7934
 11
19
 21
38.9
  0
LINE
  8
0
 10
19
 20
38.9
 11
19.5358
 21
38.7934
  0
LINE
  8
0
 10
19.5358
 20
38.7934
 11
19.9899
 21
38.4899
  0
LINE
  8
0
 10
19.9899
 20
38.4899
 11
20.2934
 21
38.0358
  0
LINE
  8
0
 10
20.2934
 20
38.0358
 11
20.4
 21
37.5
  0
LINE
  8
0
 10
20.4
 20
37.5
 11
20.2934
 21
36.9642
  0
LINE
  8
0
 10
20.2934
 20
36.9642
 11
19.9899
 21
36.51
  0
LINE
  8
0
 10
19.9899
 20
36.51
 11
19.5358
 21
36.2066
  0
LINE
  8
0
 10
19.5358
 20
36.2066
 11
19
 21
36.1
  0
LINE
  8
0
 10
19
 20
36.1
 11
18.4642
 21
36.2066
  0
LINE
  8
0
 10
-16.6506
 20
27.4294
 11
-17.2021
 21
27.7979
  0
LINE
  8
0
 10
-17.2021
 20
27.7979
 11
-17.5706
 21
28.3494
  0
LINE
  8
0
 10
-17.5706
 20
28.3494
 11
-17.7
 21
29
  0
LINE
  8
0
 10
-17.7
 20
29
 11
-17.5706
 21
29.6506
  0
LINE
  8
0
 10
-17.5706
 20
29.6506
 11
-17.2021
 21
30.2021
  0
LINE
  8
0
 10
-17.2021
 20
30.2021
 11
-16.6506
 21
30.5706
  0
LINE
  8
0
 10
-16.6506
 20
30.5706
 11
-16
 21
30.7
  0
LINE
  8
0
 10
-16
 20
30.7
 11
-15.3494
 21
30.5706
  0
LINE
  8
0
 10
-15.3494
 20
30.5706
 11
-14.7979
 21
30.2021
  0
LINE
  8
0
 10
-14.7979
 20
30.2021
 11
-14.4294
 21
29.6506
  0
LINE
  8
0
 10
-14.4294
 20
29.6506
 11
-14.3
 21
29
  0
LINE
  8
0
 10
-14.3
 20
29
 11
-14.4294
 21
28.3494
  0
LINE
  8
0
 10
-14.4294
 20
28.3494
 11
-14.7979
 21
27.7979
  0
LINE
  8
0
 10
-14.7979
 20
27.7979
 11
-15.3494
 21
27.4294
  0
LINE
  8
0
 10
-15.3494
 20
27.4294
 11
-16
 21
27.3
  0
LINE
  8
0
 10
-16
 20
27.3
 11
-16.6506
 21
27.4294
  0
LINE
  8
0
 10
65.3494
 20
27.4294
 11
64.7979
 21
27.7979
  0
LINE
  8
0
 10
64.7979
 20
27.7979
 11
64.4294
 21
28.3494
  0
LINE
  8
0
 10
64.4294
 20
28.3494
 11
64.3
 21
29
  0
LINE
  8
0
 10
64.3
 20
29
 11
64.4294
 21
29.6506
  0
LINE
  8
0
 10
64.4294
 20
29.6506
 11
64.7979
 21
30.2021
  0
LINE
  8
0
 10
64.7979
 20
30.2021
 11
65.3494
 21
30.5706
  0
LINE
  8
0
 10
65.3494
 20
30.5706
 11
66
 21
30.7
  0
LINE
  8
0
 10
66
 20
30.7
 11
66.6506
 21
30.5706
  0
LINE
  8
0
 10
66.6506
 20
30.5706
 11
67.2021
 21
30.2021
  0
LINE
  8
0
 10
67.2021
 20
30.2021
 11
67.5706
 21
29.6506
  0
LINE
  8
0
 10
67.5706
 20
29.6506
 11
67.7
 21
29
  0
LINE
  8
0
 10
67.7
 20
29
 11
67.5706
 21
28.3494
  0
LINE
  8
0
 10
67.5706
 20
28.3494
 11
67.2021
 21
27.7979
  0
LINE
  8
0
 10
67.2021
 20
27.7979
 11
66.6506
 21
27.4294
  0
LINE
  8
0
 10
66.6506
 20
27.4294
 11
66
 21
27.3
  0
LINE
  8
0
 10
66
 20
27.3
 11
65.3494
 21
27.4294
  0
LINE
  8
0
 10
-66.6506
 20
27.4294
 11
-67.2021
 21
27.7979
  0
LINE
  8
0
 10
-67.2021
 20
27.7979
 11
-67.5706
 21
28.3494
  0
LINE
  8
0
 10
-67.5706
 20
28.3494
 11
-67.7
 21
29
  0
LINE
  8
0
 10
-67.7
 20
29
 11
-67.5706
 21
29.6506
  0
LINE
  8
0
 10
-67.5706
 20
29.6506
 11
-67.2021
 21
30.2021
  0
LINE
  8
0
 10
-67.2021
 20
30.2021
 11
-66.6506
 21
30.5706
  0
LINE
  8
0
 10
-66.6506
 20
30.5706
 11
-66
 21
30.7
  0
LINE
  8
0
 10
-66
 20
30.7
 11
-65.3494
 21
30.5706
  0
LINE
  8
0
 10
-65.3494
 20
30.5706
 11
-64.7979
 21
30.2021
  0
LINE
  8
0
 10
-64.7979
 20
30.2021
 11
-64.4294
 21
29.6506
  0
LINE
  8
0
 10
-64.4294
 20
29.6506
 11
-64.3
 21
29
  0
LINE
  8
0
 10
-64.3
 20
29
 11
-64.4294
 21
28.3494
  0
LINE
  8
0
 10
-64.4294
 20
28.3494
 11
-64.7979
 21
27.7979
  0
LINE
  8
0
 10
-64.7979
 20
27.7979
 11
-65.3494
 21
27.4294
  0
LINE
  8
0
 10
-65.3494
 20
27.4294
 11
-66
 21
27.3
  0
LINE
  8
0
 10
-66
 20
27.3
 11
-66.6506
 21
27.4294
  0
LINE
  8
0
 10
15.3494
 20
27.4294
 11
14.7979
 21
27.7979
  0
LINE
  8
0
 10
14.7979
 20
27.7979
 11
14.4294
 21
28.3494
  0
LINE
  8
0
 10
14.4294
 20
28.3494
 11
14.3
 21
29
  0
LINE
  8
0
 10
14.3
 20
29
 11
14.4294
 21
29.6506
  0
LINE
  8
0
 10
14.4294
 20
29.6506
 11
14.7979
 21
30.2021
  0
LINE
  8
0
 10
14.7979
 20
30.2021
 11
15.3494
 21
30.5706
  0
LINE
  8
0
 10
15.3494
 20
30.5706
 11
16
 21
30.7
  0
LINE
  8
0
 10
16
 20
30.7
 11
16.6506
 21
30.5706
  0
LINE
  8
0
 10
16.6506
 20
30.5706
 11
17.2021
 21
30.2021
  0
LINE
  8
0
 10
17.2021
 20
30.2021
 11
17.5706
 21
29.6506
  0
LINE
  8
0
 10
17.5706
 20
29.6506
 11
17.7
 21
29
  0
LINE
  8
0
 10
17.7
 20
29
 11
17.5706
 21
28.3494
  0
LINE
  8
0
 10
17.5706
 20
28.3494
 11
17.2021
 21
27.7979
  0
LINE
  8
0
 10
17.2021
 20
27.7979
 11
16.6506
 21
27.4294
  0
LINE
  8
0
 10
16.6506
 20
27.4294
 11
16
 21
27.3
  0
LINE
  8
0
 10
16
 20
27.3
 11
15.3494
 21
27.4294
  0
LINE
  8
0
 10
-32.1506
 20
16.9294
 11
-32.7021
 21
17.2979
  0
LINE
  8
0
 10
-32.7021
 20
17.2979
 11
-33.0706
 21
17.8494
  0
LINE
  8
0
 10
-33.0706
 20
17.8494
 11
-33.2
 21
18.5
  0
LINE
  8
0
 10
-33.2
 20
18.5
 11
-33.0706
 21
19.1506
  0
LINE
  8
0
 10
-33.0706
 20
19.1506
 11
-32.7021
 21
19.7021
  0
LINE
  8
0
 10
-32.7021
 20
19.7021
 11
-32.1506
 21
20.0706
  0
LINE
  8
0
 10
-32.1506
 20
20.0706
 11
-31.5
 21
20.2
  0
LINE
  8
0
 10
-31.5
 20
20.2
 11
-30.8494
 21
20.0706
  0
LINE
  8
0
 10
-30.8494
 20
20.0706
 11
-30.2979
 21
19.7021
  0
LINE
  8
0
 10
-30.2979
 20
19.7021
 11
-29.9294
 21
19.1506
  0
LINE
  8
0
 10
-29.9294
 20
19.1506
 11
-29.8
 21
18.5
  0
LINE
  8
0
 10
-29.8
 20
18.5
 11
-29.9294
 21
17.8494
  0
LINE
  8
0
 10
-29.9294
 20
17.8494
 11
-30.2979
 21
17.2979
  0
LINE
  8
0
 10
-30.2979
 20
17.2979
 11
-30.8494
 21
16.9294
  0
LINE
  8
0
 10
-30.8494
 20
16.9294
 11
-31.5
 21
16.8
  0
LINE
  8
0
 10
-31.5
 20
16.8
 11
-32.1506
 21
16.9294
  0
LINE
  8
0
 10
-69.1506
 20
16.9294
 11
-69.7021
 21
17.2979
  0
LINE
  8
0
 10
-69.7021
 20
17.2979
 11
-70.0706
 21
17.8494
  0
LINE
  8
0
 10
-70.0706
 20
17.8494
 11
-70.2
 21
18.5
  0
LINE
  8
0
 10
-70.2
 20
18.5
 11
-70.0706
 21
19.1506
  0
LINE
  8
0
 10
-70.0706
 20
19.1506
 11
-69.7021
 21
19.7021
  0
LINE
  8
0
 10
-69.7021
 20
19.7021
 11
-69.1506
 21
20.0706
  0
LINE
  8
0
 10
-69.1506
 20
20.0706
 11
-68.5
 21
20.2
  0
LINE
  8
0
 10
-68.5
 20
20.2
 11
-67.8494
 21
20.0706
  0
LINE
  8
0
 10
-67.8494
 20
20.0706
 11
-67.2979
 21
19.7021
  0
LINE
  8
0
 10
-67.2979
 20
19.7021
 11
-66.9294
 21
19.1506
  0
LINE
  8
0
 10
-66.9294
 20
19.1506
 11
-66.8
 21
18.5
  0
LINE
  8
0
 10
-66.8
 20
18.5
 11
-66.9294
 21
17.8494
  0
LINE
  8
0
 10
-66.9294
 20
17.8494
 11
-67.2979
 21
17.2979
  0
LINE
  8
0
 10
-67.2979
 20
17.2979
 11
-67.8494
 21
16.9294
  0
LINE
  8
0
 10
-67.8494
 20
16.9294
 11
-68.5
 21
16.8
  0
LINE
  8
0
 10
-68.5
 20
16.8
 11
-69.1506
 21
16.9294
  0
LINE
  8
0
 10
14.9058
 20
13.9857
 11
14.3543
 21
14.3543
  0
LINE
  8
0
 10
14.3543
 20
14.3543
 11
13.9857
 21
14.9058
  0
LINE
  8
0
 10
13.9857
 20
14.9058
 11
13.8563
 21
15.5563
  0
LINE
  8
0
 10
13.8563
 20
15.5563
 11
13.9857
 21
16.2069
  0
LINE
  8
0
 10
13.9857
 20
16.2069
 11
14.3543
 21
16.7584
  0
LINE
  8
0
 10
14.3543
 20
16.7584
 11
14.9058
 21
17.1269
  0
LINE
  8
0
 10
14.9058
 20
17.1269
 11
15.5563
 21
17.2563
  0
LINE
  8
0
 10
15.5563
 20
17.2563
 11
16.2069
 21
17.1269
  0
LINE
  8
0
 10
16.2069
 20
17.1269
 11
16.7584
 21
16.7584
  0
LINE
  8
0
 10
16.7584
 20
16.7584
 11
17.1269
 21
16.2069
  0
LINE
  8
0
 10
17.1269
 20
16.2069
 11
17.2563
 21
15.5563
  0
LINE
  8
0
 10
17.2563
 20
15.5563
 11
17.1269
 21
14.9058
  0
LINE
  8
0
 10
17.1269
 20
14.9058
 11
16.7584
 21
14.3543
  0
LINE
  8
0
 10
16.7584
 20
14.3543
 11
16.2069
 21
13.9857
  0
LINE
  8
0
 10
16.2069
 20
13.9857
 11
15.5563
 21
13.8563
  0
LINE
  8
0
 10
15.5563
 20
13.8563
 11
14.9058
 21
13.9857
  0
LINE
  8
0
 10
-16.2069
 20
13.9857
 11
-16.7584
 21
14.3543
  0
LINE
  8
0
 10
-16.7584
 20
14.3543
 11
-17.1269
 21
14.9058
  0
LINE
  8
0
 10
-17.1269
 20
14.9058
 11
-17.2563
 21
15.5563
  0
LINE
  8
0
 10
-17.2563
 20
15.5563
 11
-17.1269
 21
16.2069
  0
LINE
  8
0
 10
-17.1269
 20
16.2069
 11
-16.7584
 21
16.7584
  0
LINE
  8
0
 10
-16.7584
 20
16.7584
 11
-16.2069
 21
17.1269
  0
LINE
  8
0
 10
-16.2069
 20
17.1269
 11
-15.5563
 21
17.2563
  0
LINE
  8
0
 10
-15.5563
 20
17.2563
 11
-14.9058
 21
17.1269
  0
LINE
  8
0
 10
-14.9058
 20
17.1269
 11
-14.3543
 21
16.7584
  0
LINE
  8
0
 10
-14.3543
 20
16.7584
 11
-13.9857
 21
16.2069
  0
LINE
  8
0
 10
-13.9857
 20
16.2069
 11
-13.8563
 21
15.5563
  0
LINE
  8
0
 10
-13.8563
 20
15.5563
 11
-13.9857
 21
14.9058
  0
LINE
  8
0
 10
-13.9857
 20
14.9058
 11
-14.3543
 21
14.3543
  0
LINE
  8
0
 10
-14.3543
 20
14.3543
 11
-14.9058
 21
13.9857
  0
LINE
  8
0
 10
-14.9058
 20
13.9857
 11
-15.5563
 21
13.8563
  0
LINE
  8
0
 10
-15.5563
 20
13.8563
 11
-16.2069
 21
13.9857
  0
LINE
  8
0
 10
-0.707092
 20
-0.707092
 11
-1
 21
0
  0
LINE
  8
0
 10
-1
 20
0
 11
-0.707092
 21
0.707092
  0
LINE
  8
0
 10
-0.707092
 20
0.707092
 11
0
 21
1
  0
LINE
  8
0
 10
0
 20
1
 11
0.707092
 21
0.707092
  0
LINE
  8
0
 10
0.707092
 20
0.707092
 11
1
 21
0
  0
LINE
  8
0
 10
1
 20
0
 11
0.707092
 21
-0.707092
  0
LINE
  8
0
 10
0.707092
 20
-0.707092
 11
0
 21
-1
  0
LINE
  8
0
 10
0
 20
-1
 11
-0.707092
 21
-0.707092
  0
LINE
  8
0
 10
-16.2069
 20
-17.1269
 11
-16.7584
 21
-16.7584
  0
LINE
  8
0
 10
-16.7584
 20
-16.7584
 11
-17.0722
 21
-16.2889
  0
LINE
  8
0
 10
-17.0722
 20
-16.2889
 11
-17.2021
 21
-16.2021
  0
LINE
  8
0
 10
-17.2021
 20
-16.2021
 11
-17.5706
 21
-15.6506
  0
LINE
  8
0
 10
-17.5706
 20
-15.6506
 11
-17.7
 21
-15
  0
LINE
  8
0
 10
-17.7
 20
-15
 11
-17.5706
 21
-14.3494
  0
LINE
  8
0
 10
-17.5706
 20
-14.3494
 11
-17.2021
 21
-13.7979
  0
LINE
  8
0
 10
-17.2021
 20
-13.7979
 11
-16.6506
 21
-13.4294
  0
LINE
  8
0
 10
-16.6506
 20
-13.4294
 11
-16
 21
-13.3
  0
LINE
  8
0
 10
-16
 20
-13.3
 11
-15.3494
 21
-13.4294
  0
LINE
  8
0
 10
-15.3494
 20
-13.4294
 11
-14.7979
 21
-13.7979
  0
LINE
  8
0
 10
-14.7979
 20
-13.7979
 11
-14.4842
 21
-14.2675
  0
LINE
  8
0
 10
-14.4842
 20
-14.2675
 11
-14.3543
 21
-14.3543
  0
LINE
  8
0
 10
-14.3543
 20
-14.3543
 11
-13.9857
 21
-14.9058
  0
LINE
  8
0
 10
-13.9857
 20
-14.9058
 11
-13.8563
 21
-15.5563
  0
LINE
  8
0
 10
-13.8563
 20
-15.5563
 11
-13.9857
 21
-16.2069
  0
LINE
  8
0
 10
-13.9857
 20
-16.2069
 11
-14.3543
 21
-16.7584
  0
LINE
  8
0
 10
-14.3543
 20
-16.7584
 11
-14.9058
 21
-17.1269
  0
LINE
  8
0
 10
-14.9058
 20
-17.1269
 11
-15.5563
 21
-17.2563
  0
LINE
  8
0
 10
-15.5563
 20
-17.2563
 11
-16.2069
 21
-17.1269
  0
LINE
  8
0
 10
-66.6506
 20
-16.5706
 11
-67.2021
 21
-16.2021
  0
LINE
  8
0
 10
-67.2021
 20
-16.2021
 11
-67.5706
 21
-15.6506
  0
LINE
  8
0
 10
-67.5706
 20
-15.6506
 11
-67.7
 21
-15
  0
LINE
  8
0
 10
-67.7
 20
-15
 11
-67.5706
 21
-14.3494
  0
LINE
  8
0
 10
-67.5706
 20
-14.3494
 11
-67.2021
 21
-13.7979
  0
LINE
  8
0
 10
-67.2021
 20
-13.7979
 11
-66.6506
 21
-13.4294
  0
LINE
  8
0
 10
-66.6506
 20
-13.4294
 11
-66
 21
-13.3
  0
LINE
  8
0
 10
-66
 20
-13.3
 11
-65.3494
 21
-13.4294
  0
LINE
  8
0
 10
-65.3494
 20
-13.4294
 11
-64.7979
 21
-13.7979
  0
LINE
  8
0
 10
-64.7979
 20
-13.7979
 11
-64.4294
 21
-14.3494
  0
LINE
  8
0
 10
-64.4294
 20
-14.3494
 11
-64.3
 21
-15
  0
LINE
  8
0
 10
-64.3
 20
-15
 11
-64.4294
 21
-15.6506
  0
LINE
  8
0
 10
-64.4294
 20
-15.6506
 11
-64.7979
 21
-16.2021
  0
LINE
  8
0
 10
-64.7979
 20
-16.2021
 11
-65.3494
 21
-16.5706
  0
LINE
  8
0
 10
-65.3494
 20
-16.5706
 11
-66
 21
-16.7
  0
LINE
  8
0
 10
-66
 20
-16.7
 11
-66.6506
 21
-16.5706
  0
LINE
  8
0
 10
65.3494
 20
-16.5706
 11
64.7979
 21
-16.2021
  0
LINE
  8
0
 10
64.7979
 20
-16.2021
 11
64.4294
 21
-15.6506
  0
LINE
  8
0
 10
64.4294
 20
-15.6506
 11
64.3
 21
-15
  0
LINE
  8
0
 10
64.3
 20
-15
 11
64.4294
 21
-14.3494
  0
LINE
  8
0
 10
64.4294
 20
-14.3494
 11
64.7979
 21
-13.7979
  0
LINE
  8
0
 10
64.7979
 20
-13.7979
 11
65.3494
 21
-13.4294
  0
LINE
  8
0
 10
65.3494
 20
-13.4294
 11
66
 21
-13.3
  0
LINE
  8
0
 10
66
 20
-13.3
 11
66.6506
 21
-13.4294
  0
LINE
  8
0
 10
66.6506
 20
-13.4294
 11
67.2021
 21
-13.7979
  0
LINE
  8
0
 10
67.2021
 20
-13.7979
 11
67.5706
 21
-14.3494
  0
LINE
  8
0
 10
67.5706
 20
-14.3494
 11
67.7
 21
-15
  0
LINE
  8
0
 10
67.7
 20
-15
 11
67.5706
 21
-15.6506
  0
LINE
  8
0
 10
67.5706
 20
-15.6506
 11
67.2021
 21
-16.2021
  0
LINE
  8
0
 10
67.2021
 20
-16.2021
 11
66.6506
 21
-16.5706
  0
LINE
  8
0
 10
66.6506
 20
-16.5706
 11
66
 21
-16.7
  0
LINE
  8
0
 10
66
 20
-16.7
 11
65.3494
 21
-16.5706
  0
LINE
  8
0
 10
14.9058
 20
-17.1269
 11
14.3543
 21
-16.7584
  0
LINE
  8
0
 10
14.3543
 20
-16.7584
 11
13.9857
 21
-16.2069
  0
LINE
  8
0
 10
13.9857
 20
-16.2069
 11
13.8563
 21
-15.5563
  0
LINE
  8
0
 10
13.8563
 20
-15.5563
 11
13.9857
 21
-14.9058
  0
LINE
  8
0
 10
13.9857
 20
-14.9058
 11
14.3543
 21
-14.3543
  0
LINE
  8
0
 10
14.3543
 20
-14.3543
 11
14.4842
 21
-14.2675
  0
LINE
  8
0
 10
14.4842
 20
-14.2675
 11
14.7979
 21
-13.7979
  0
LINE
  8
0
 10
14.7979
 20
-13.7979
 11
15.3494
 21
-13.4294
  0
LINE
  8
0
 10
15.3494
 20
-13.4294
 11
16
 21
-13.3
  0
LINE
  8
0
 10
16
 20
-13.3
 11
16.6506
 21
-13.4294
  0
LINE
  8
0
 10
16.6506
 20
-13.4294
 11
17.2021
 21
-13.7979
  0
LINE
  8
0
 10
17.2021
 20
-13.7979
 11
17.5706
 21
-14.3494
  0
LINE
  8
0
 10
17.5706
 20
-14.3494
 11
17.7
 21
-15
  0
LINE
  8
0
 10
17.7
 20
-15
 11
17.5706
 21
-15.6506
  0
LINE
  8
0
 10
17.5706
 20
-15.6506
 11
17.2021
 21
-16.2021
  0
LINE
  8
0
 10
17.2021
 20
-16.2021
 11
17.0722
 21
-16.2889
  0
LINE
  8
0
 10
17.0722
 20
-16.2889
 11
16.7584
 21
-16.7584
  0
LINE
  8
0
 10
16.7584
 20
-16.7584
 11
16.2069
 21
-17.1269
  0
LINE
  8
0
 10
16.2069
 20
-17.1269
 11
15.5563
 21
-17.2563
  0
LINE
  8
0
 10
15.5563
 20
-17.2563
 11
14.9058
 21
-17.1269
  0
LINE
  8
0
 10
-32.1506
 20
-20.0706
 11
-32.7021
 21
-19.7021
  0
LINE
  8
0
 10
-32.7021
 20
-19.7021
 11
-33.0706
 21
-19.1506
  0
LINE
  8
0
 10
-33.0706
 20
-19.1506
 11
-33.2
 21
-18.5
  0
LINE
  8
0
 10
-33.2
 20
-18.5
 11
-33.0706
 21
-17.8494
  0
LINE
  8
0
 10
-33.0706
 20
-17.8494
 11
-32.7021
 21
-17.2979
  0
LINE
  8
0
 10
-32.7021
 20
-17.2979
 11
-32.1506
 21
-16.9294
  0
LINE
  8
0
 10
-32.1506
 20
-16.9294
 11
-31.5
 21
-16.8
  0
LINE
  8
0
 10
-31.5
 20
-16.8
 11
-30.8494
 21
-16.9294
  0
LINE
  8
0
 10
-30.8494
 20
-16.9294
 11
-30.2979
 21
-17.2979
  0
LINE
  8
0
 10
-30.2979
 20
-17.2979
 11
-29.9294
 21
-17.8494
  0
LINE
  8
0
 10
-29.9294
 20
-17.8494
 11
-29.8
 21
-18.5
  0
LINE
  8
0
 10
-29.8
 20
-18.5
 11
-29.9294
 21
-19.1506
  0
LINE
  8
0
 10
-29.9294
 20
-19.1506
 11
-30.2979
 21
-19.7021
  0
LINE
  8
0
 10
-30.2979
 20
-19.7021
 11
-30.8494
 21
-20.0706
  0
LINE
  8
0
 10
-30.8494
 20
-20.0706
 11
-31.5
 21
-20.2
  0
LINE
  8
0
 10
-31.5
 20
-20.2
 11
-32.1506
 21
-20.0706
  0
LINE
  8
0
 10
-69.1506
 20
-20.0706
 11
-69.7021
 21
-19.7021
  0
LINE
  8
0
 10
-69.7021
 20
-19.7021
 11
-70.0706
 21
-19.1506
  0
LINE
  8
0
 10
-70.0706
 20
-19.1506
 11
-70.2
 21
-18.5
  0
LINE
  8
0
 10
-70.2
 20
-18.5
 11
-70.0706
 21
-17.8494
  0
LINE
  8
0
 10
-70.0706
 20
-17.8494
 11
-69.7021
 21
-17.2979
  0
LINE
  8
0
 10
-69.7021
 20
-17.2979
 11
-69.1506
 21
-16.9294
  0
LINE
  8
0
 10
-69.1506
 20
-16.9294
 11
-68.5
 21
-16.8
  0
LINE
  8
0
 10
-68.5
 20
-16.8
 11
-67.8494
 21
-16.9294
  0
LINE
  8
0
 10
-67.8494
 20
-16.9294
 11
-67.2979
 21
-17.2979
  0
LINE
  8
0
 10
-67.2979
 20
-17.2979
 11
-66.9294
 21
-17.8494
  0
LINE
  8
0
 10
-66.9294
 20
-17.8494
 11
-66.8
 21
-18.5
  0
LINE
  8
0
 10
-66.8
 20
-18.5
 11
-66.9294
 21
-19.1506
  0
LINE
  8
0
 10
-66.9294
 20
-19.1506
 11
-67.2979
 21
-19.7021
  0
LINE
  8
0
 10
-67.2979
 20
-19.7021
 11
-67.8494
 21
-20.0706
  0
LINE
  8
0
 10
-67.8494
 20
-20.0706
 11
-68.5
 21
-20.2
  0
LINE
  8
0
 10
-68.5
 20
-20.2
 11
-69.1506
 21
-20.0706
  0
LINE
  8
0
 10
53.5642
 20
-50.9059
 11
52.153
 21
-50.6252
  0
LINE
  8
0
 10
52.153
 20
-50.6252
 11
50.7905
 21
-50.1627
  0
LINE
  8
0
 10
50.7905
 20
-50.1627
 11
49.5
 21
-49.5263
  0
LINE
  8
0
 10
49.5
 20
-49.5263
 11
48.3036
 21
-48.7269
  0
LINE
  8
0
 10
48.3036
 20
-48.7269
 11
47.2218
 21
-47.7782
  0
LINE
  8
0
 10
47.2218
 20
-47.7782
 11
46.2731
 21
-46.6964
  0
LINE
  8
0
 10
46.2731
 20
-46.6964
 11
45.4737
 21
-45.5
  0
LINE
  8
0
 10
45.4737
 20
-45.5
 11
44.8373
 21
-44.2095
  0
LINE
  8
0
 10
44.8373
 20
-44.2095
 11
44.3748
 21
-42.847
  0
LINE
  8
0
 10
44.3748
 20
-42.847
 11
44.0941
 21
-41.4358
  0
LINE
  8
0
 10
44.0941
 20
-41.4358
 11
44
 21
-40
  0
LINE
  8
0
 10
44
 20
-40
 11
44.0941
 21
-38.5642
  0
LINE
  8
0
 10
44.0941
 20
-38.5642
 11
44.3748
 21
-37.153
  0
LINE
  8
0
 10
44.3748
 20
-37.153
 11
44.8373
 21
-35.7905
  0
LINE
  8
0
 10
44.8373
 20
-35.7905
 11
45.4737
 21
-34.5
  0
LINE
  8
0
 10
45.4737
 20
-34.5
 11
46.2731
 21
-33.3036
  0
LINE
  8
0
 10
46.2731
 20
-33.3036
 11
47.2218
 21
-32.2218
  0
LINE
  8
0
 10
47.2218
 20
-32.2218
 11
48.3036
 21
-31.2731
  0
LINE
  8
0
 10
48.3036
 20
-31.2731
 11
49.5
 21
-30.4737
  0
LINE
  8
0
 10
49.5
 20
-30.4737
 11
50.7905
 21
-29.8373
  0
LINE
  8
0
 10
50.7905
 20
-29.8373
 11
52.153
 21
-29.3748
  0
LINE
  8
0
 10
52.153
 20
-29.3748
 11
53.5642
 21
-29.0941
  0
LINE
  8
0
 10
53.5642
 20
-29.0941
 11
55
 21
-29
  0
LINE
  8
0
 10
55
 20
-29
 11
56.4358
 21
-29.0941
  0
LINE
  8
0
 10
56.4358
 20
-29.0941
 11
57.847
 21
-29.3748
  0
LINE
  8
0
 10
57.847
 20
-29.3748
 11
59.2095
 21
-29.8373
  0
LINE
  8
0
 10
59.2095
 20
-29.8373
 11
60.5
 21
-30.4737
  0
LINE
  8
0
 10
60.5
 20
-30.4737
 11
61.6964
 21
-31.2731
  0
LINE
  8
0
 10
61.6964
 20
-31.2731
 11
62.7782
 21
-32.2218
  0
LINE
  8
0
 10
62.7782
 20
-32.2218
 11
63.7269
 21
-33.3036
  0
LINE
  8
0
 10
63.7269
 20
-33.3036
 11
64.5263
 21
-34.5
  0
LINE
  8
0
 10
64.5263
 20
-34.5
 11
65.1627
 21
-35.7905
  0
LINE
  8
0
 10
65.1627
 20
-35.7905
 11
65.6252
 21
-37.153
  0
LINE
  8
0
 10
65.6252
 20
-37.153
 11
65.9059
 21
-38.5642
  0
LINE
  8
0
 10
65.9059
 20
-38.5642
 11
66
 21
-40
  0
LINE
  8
0
 10
66
 20
-40
 11
65.9059
 21
-41.4358
  0
LINE
  8
0
 10
65.9059
 20
-41.4358
 11
65.6252
 21
-42.847
  0
LINE
  8
0
 10
65.6252
 20
-42.847
 11
65.1627
 21
-44.2095
  0
LINE
  8
0
 10
65.1627
 20
-44.2095
 11
64.5263
 21
-45.5
  0
LINE
  8
0
 10
64.5263
 20
-45.5
 11
63.7269
 21
-46.6964
  0
LINE
  8
0
 10
63.7269
 20
-46.6964
 11
62.7782
 21
-47.7782
  0
LINE
  8
0
 10
62.7782
 20
-47.7782
 11
61.6964
 21
-48.7269
  0
LINE
  8
0
 10
61.6964
 20
-48.7269
 11
60.5
 21
-49.5263
  0
LINE
  8
0
 10
60.5
 20
-49.5263
 11
59.2095
 21
-50.1627
  0
LINE
  8
0
 10
59.2095
 20
-50.1627
 11
57.847
 21
-50.6252
  0
LINE
  8
0
 10
57.847
 20
-50.6252
 11
56.4358
 21
-50.9059
  0
LINE
  8
0
 10
56.4358
 20
-50.9059
 11
55
 21
-51
  0
LINE
  8
0
 10
55
 20
-51
 11
53.5642
 21
-50.9059
  0
LINE
  8
0
 10
-56.4358
 20
-50.9059
 11
-57.847
 21
-50.6252
  0
LINE
  8
0
 10
-57.847
 20
-50.6252
 11
-59.2095
 21
-50.1627
  0
LINE
  8
0
 10
-59.2095
 20
-50.1627
 11
-60.5
 21
-49.5263
  0
LINE
  8
0
 10
-60.5
 20
-49.5263
 11
-61.6964
 21
-48.7269
  0
LINE
  8
0
 10
-61.6964
 20
-48.7269
 11
-62.7782
 21
-47.7782
  0
LINE
  8
0
 10
-62.7782
 20
-47.7782
 11
-63.7269
 21
-46.6964
  0
LINE
  8
0
 10
-63.7269
 20
-46.6964
 11
-64.5263
 21
-45.5
  0
LINE
  8
0
 10
-64.5263
 20
-45.5
 11
-65.1627
 21
-44.2095
  0
LINE
  8
0
 10
-65.1627
 20
-44.2095
 11
-65.6252
 21
-42.847
  0
LINE
  8
0
 10
-65.6252
 20
-42.847
 11
-65.6936
 21
-42.5031
  0
LINE
  8
0
 10
-65.6936
 20
-42.5031
 11
-65.9731
 21
-42.9214
  0
LINE
  8
0
 10
-65.9731
 20
-42.9214
 11
-66.5246
 21
-43.2899
  0
LINE
  8
0
 10
-66.5246
 20
-43.2899
 11
-67.1751
 21
-43.4193
  0
LINE
  8
0
 10
-67.1751
 20
-43.4193
 11
-67.8257
 21
-43.2899
  0
LINE
  8
0
 10
-67.8257
 20
-43.2899
 11
-68.3772
 21
-42.9214
  0
LINE
  8
0
 10
-68.3772
 20
-42.9214
 11
-68.7457
 21
-42.3699
  0
LINE
  8
0
 10
-68.7457
 20
-42.3699
 11
-68.8751
 21
-41.7193
  0
LINE
  8
0
 10
-68.8751
 20
-41.7193
 11
-68.7457
 21
-41.0687
  0
LINE
  8
0
 10
-68.7457
 20
-41.0687
 11
-68.3772
 21
-40.5172
  0
LINE
  8
0
 10
-68.3772
 20
-40.5172
 11
-67.8257
 21
-40.1487
  0
LINE
  8
0
 10
-67.8257
 20
-40.1487
 11
-67.1751
 21
-40.0193
  0
LINE
  8
0
 10
-67.1751
 20
-40.0193
 11
-66.5246
 21
-40.1487
  0
LINE
  8
0
 10
-66.5246
 20
-40.1487
 11
-65.9731
 21
-40.5172
  0
LINE
  8
0
 10
-65.9731
 20
-40.5172
 11
-65.9653
 21
-40.5288
  0
LINE
  8
0
 10
-65.9653
 20
-40.5288
 11
-66
 21
-40
  0
LINE
  8
0
 10
-66
 20
-40
 11
-65.9059
 21
-38.5642
  0
LINE
  8
0
 10
-65.9059
 20
-38.5642
 11
-65.6252
 21
-37.153
  0
LINE
  8
0
 10
-65.6252
 20
-37.153
 11
-65.1627
 21
-35.7905
  0
LINE
  8
0
 10
-65.1627
 20
-35.7905
 11
-64.5263
 21
-34.5
  0
LINE
  8
0
 10
-64.5263
 20
-34.5
 11
-63.7269
 21
-33.3036
  0
LINE
  8
0
 10
-63.7269
 20
-33.3036
 11
-62.7782
 21
-32.2218
  0
LINE
  8
0
 10
-62.7782
 20
-32.2218
 11
-61.6964
 21
-31.2731
  0
LINE
  8
0
 10
-61.6964
 20
-31.2731
 11
-60.5
 21
-30.4737
  0
LINE
  8
0
 10
-60.5
 20
-30.4737
 11
-59.2095
 21
-29.8373
  0
LINE
  8
0
 10
-59.2095
 20
-29.8373
 11
-57.847
 21
-29.3748
  0
LINE
  8
0
 10
-57.847
 20
-29.3748
 11
-56.4358
 21
-29.0941
  0
LINE
  8
0
 10
-56.4358
 20
-29.0941
 11
-55
 21
-29
  0
LINE
  8
0
 10
-55
 20
-29
 11
-53.5642
 21
-29.0941
  0
LINE
  8
0
 10
-53.5642
 20
-29.0941
 11
-52.153
 21
-29.3748
  0
LINE
  8
0
 10
-52.153
 20
-29.3748
 11
-50.7905
 21
-29.8373
  0
LINE
  8
0
 10
-50.7905
 20
-29.8373
 11
-49.5
 21
-30.4737
  0
LINE
  8
0
 10
-49.5
 20
-30.4737
 11
-48.3036
 21
-31.2731
  0
LINE
  8
0
 10
-48.3036
 20
-31.2731
 11
-47.2218
 21
-32.2218
  0
LINE
  8
0
 10
-47.2218
 20
-32.2218
 11
-46.2731
 21
-33.3036
  0
LINE
  8
0
 10
-46.2731
 20
-33.3036
 11
-45.4737
 21
-34.5
  0
LINE
  8
0
 10
-45.4737
 20
-34.5
 11
-44.8373
 21
-35.7905
  0
LINE
  8
0
 10
-44.8373
 20
-35.7905
 11
-44.3748
 21
-37.153
  0
LINE
  8
0
 10
-44.3748
 20
-37.153
 11
-44.0941
 21
-38.5642
  0
LINE
  8
0
 10
-44.0941
 20
-38.5642
 11
-44
 21
-40
  0
LINE
  8
0
 10
-44
 20
-40
 11
-44.0941
 21
-41.4358
  0
LINE
  8
0
 10
-44.0941
 20
-41.4358
 11
-44.3748
 21
-42.847
  0
LINE
  8
0
 10
-44.3748
 20
-42.847
 11
-44.8373
 21
-44.2095
  0
LINE
  8
0
 10
-44.8373
 20
-44.2095
 11
-45.4737
 21
-45.5
  0
LINE
  8
0
 10
-45.4737
 20
-45.5
 11
-46.2731
 21
-46.6964
  0
LINE
  8
0
 10
-46.2731
 20
-46.6964
 11
-47.2218
 21
-47.7782
  0
LINE
  8
0
 10
-47.2218
 20
-47.7782
 11
-48.3036
 21
-48.7269
  0
LINE
  8
0
 10
-48.3036
 20
-48.7269
 11
-49.5
 21
-49.5263
  0
LINE
  8
0
 10
-49.5
 20
-49.5263
 11
-50.7905
 21
-50.1627
  0
LINE
  8
0
 10
-50.7905
 20
-50.1627
 11
-52.153
 21
-50.6252
  0
LINE
  8
0
 10
-52.153
 20
-50.6252
 11
-53.5642
 21
-50.9059
  0
LINE
  8
0
 10
-53.5642
 20
-50.9059
 11
-55
 21
-51
  0
LINE
  8
0
 10
-55
 20
-51
 11
-56.4358
 21
-50.9059
  0
LINE
  8
0
 10
-14.6506
 20
-39.5706
 11
-15.2021
 21
-39.2021
  0
LINE
  8
0
 10
-15.2021
 20
-39.2021
 11
-15.5706
 21
-38.6506
  0
LINE
  8
0
 10
-15.5706
 20
-38.6506
 11
-15.7
 21
-38
  0
LINE
  8
0
 10
-15.7
 20
-38
 11
-15.5706
 21
-37.3494
  0
LINE
  8
0
 10
-15.5706
 20
-37.3494
 11
-15.2021
 21
-36.7979
  0
LINE
  8
0
 10
-15.2021
 20
-36.7979
 11
-14.6506
 21
-36.4294
  0
LINE
  8
0
 10
-14.6506
 20
-36.4294
 11
-14
 21
-36.3
  0
LINE
  8
0
 10
-14
 20
-36.3
 11
-13.3494
 21
-36.4294
  0
LINE
  8
0
 10
-13.3494
 20
-36.4294
 11
-12.7979
 21
-36.7979
  0
LINE
  8
0
 10
-12.7979
 20
-36.7979
 11
-12.4294
 21
-37.3494
  0
LINE
  8
0
 10
-12.4294
 20
-37.3494
 11
-12.3
 21
-38
  0
LINE
  8
0
 10
-12.3
 20
-38
 11
-12.4294
 21
-38.6506
  0
LINE
  8
0
 10
-12.4294
 20
-38.6506
 11
-12.7979
 21
-39.2021
  0
LINE
  8
0
 10
-12.7979
 20
-39.2021
 11
-13.3494
 21
-39.5706
  0
LINE
  8
0
 10
-13.3494
 20
-39.5706
 11
-14
 21
-39.7
  0
LINE
  8
0
 10
-14
 20
-39.7
 11
-14.6506
 21
-39.5706
  0
LINE
  8
0
 10
36.1494
 20
-54.7706
 11
35.5979
 21
-54.4021
  0
LINE
  8
0
 10
35.5979
 20
-54.4021
 11
35.2294
 21
-53.8506
  0
LINE
  8
0
 10
35.2294
 20
-53.8506
 11
35.1
 21
-53.2
  0
LINE
  8
0
 10
35.1
 20
-53.2
 11
35.2294
 21
-52.5494
  0
LINE
  8
0
 10
35.2294
 20
-52.5494
 11
35.5979
 21
-51.9979
  0
LINE
  8
0
 10
35.5979
 20
-51.9979
 11
36.1494
 21
-51.6294
  0
LINE
  8
0
 10
36.1494
 20
-51.6294
 11
36.8
 21
-51.5
  0
LINE
  8
0
 10
36.8
 20
-51.5
 11
37.4506
 21
-51.6294
  0
LINE
  8
0
 10
37.4506
 20
-51.6294
 11
38.0021
 21
-51.9979
  0
LINE
  8
0
 10
38.0021
 20
-51.9979
 11
38.3706
 21
-52.5494
  0
LINE
  8
0
 10
38.3706
 20
-52.5494
 11
38.5
 21
-53.2
  0
LINE
  8
0
 10
38.5
 20
-53.2
 11
38.3706
 21
-53.8506
  0
LINE
  8
0
 10
38.3706
 20
-53.8506
 11
38.0021
 21
-54.4021
  0
LINE
  8
0
 10
38.0021
 20
-54.4021
 11
37.4506
 21
-54.7706
  0
LINE
  8
0
 10
37.4506
 20
-54.7706
 11
36.8
 21
-54.9
  0
LINE
  8
0
 10
36.8
 20
-54.9
 11
36.1494
 21
-54.7706
  0
LINE
  8
0
 10
-15.6506
 20
-67.5706
 11
-16.2021
 21
-67.2021
  0
LINE
  8
0
 10
-16.2021
 20
-67.2021
 11
-16.5706
 21
-66.6506
  0
LINE
  8
0
 10
-16.5706
 20
-66.6506
 11
-16.7
 21
-66
  0
LINE
  8
0
 10
-16.7
 20
-66
 11
-16.5706
 21
-65.3494
  0
LINE
  8
0
 10
-16.5706
 20
-65.3494
 11
-16.2021
 21
-64.7979
  0
LINE
  8
0
 10
-16.2021
 20
-64.7979
 11
-15.6506
 21
-64.4294
  0
LINE
  8
0
 10
-15.6506
 20
-64.4294
 11
-15
 21
-64.3
  0
LINE
  8
0
 10
-15
 20
-64.3
 11
-14.3494
 21
-64.4294
  0
LINE
  8
0
 10
-14.3494
 20
-64.4294
 11
-13.7979
 21
-64.7979
  0
LINE
  8
0
 10
-13.7979
 20
-64.7979
 11
-13.4294
 21
-65.3494
  0
LINE
  8
0
 10
-13.4294
 20
-65.3494
 11
-13.3
 21
-66
  0
LINE
  8
0
 10
-13.3
 20
-66
 11
-13.4294
 21
-66.6506
  0
LINE
  8
0
 10
-13.4294
 20
-66.6506
 11
-13.7979
 21
-67.2021
  0
LINE
  8
0
 10
-13.7979
 20
-67.2021
 11
-14.3494
 21
-67.5706
  0
LINE
  8
0
 10
-14.3494
 20
-67.5706
 11
-15
 21
-67.7
  0
LINE
  8
0
 10
-15
 20
-67.7
 11
-15.6506
 21
-67.5706
  0
LINE
  8
0
 10
14.3494
 20
-67.5706
 11
13.7979
 21
-67.2021
  0
LINE
  8
0
 10
13.7979
 20
-67.2021
 11
13.4294
 21
-66.6506
  0
LINE
  8
0
 10
13.4294
 20
-66.6506
 11
13.3
 21
-66
  0
LINE
  8
0
 10
13.3
 20
-66
 11
13.4294
 21
-65.3494
  0
LINE
  8
0
 10
13.4294
 20
-65.3494
 11
13.7979
 21
-64.7979
  0
LINE
  8
0
 10
13.7979
 20
-64.7979
 11
14.3494
 21
-64.4294
  0
LINE
  8
0
 10
14.3494
 20
-64.4294
 11
15
 21
-64.3
  0
LINE
  8
0
 10
15
 20
-64.3
 11
15.6506
 21
-64.4294
  0
LINE
  8
0
 10
15.6506
 20
-64.4294
 11
16.2021
 21
-64.7979
  0
LINE
  8
0
 10
16.2021
 20
-64.7979
 11
16.5706
 21
-65.3494
  0
LINE
  8
0
 10
16.5706
 20
-65.3494
 11
16.7
 21
-66
  0
LINE
  8
0
 10
16.7
 20
-66
 11
16.5706
 21
-66.6506
  0
LINE
  8
0
 10
16.5706
 20
-66.6506
 11
16.2021
 21
-67.2021
  0
LINE
  8
0
 10
16.2021
 20
-67.2021
 11
15.6506
 21
-67.5706
  0
LINE
  8
0
 10
15.6506
 20
-67.5706
 11
15
 21
-67.7
  0
LINE
  8
0
 10
15
 20
-67.7
 11
14.3494
 21
-67.5706
  0
LINE
  8
0
 10
-42.3699
 20
-68.7457
 11
-42.9214
 21
-68.3772
  0
LINE
  8
0
 10
-42.9214
 20
-68.3772
 11
-43.2899
 21
-67.8257
  0
LINE
  8
0
 10
-43.2899
 20
-67.8257
 11
-43.4193
 21
-67.1751
  0
LINE
  8
0
 10
-43.4193
 20
-67.1751
 11
-43.2899
 21
-66.5246
  0
LINE
  8
0
 10
-43.2899
 20
-66.5246
 11
-42.9214
 21
-65.9731
  0
LINE
  8
0
 10
-42.9214
 20
-65.9731
 11
-42.3699
 21
-65.6045
  0
LINE
  8
0
 10
-42.3699
 20
-65.6045
 11
-41.7193
 21
-65.4751
  0
LINE
  8
0
 10
-41.7193
 20
-65.4751
 11
-41.0687
 21
-65.6045
  0
LINE
  8
0
 10
-41.0687
 20
-65.6045
 11
-40.5172
 21
-65.9731
  0
LINE
  8
0
 10
-40.5172
 20
-65.9731
 11
-40.1487
 21
-66.5246
  0
LINE
  8
0
 10
-40.1487
 20
-66.5246
 11
-40.0193
 21
-67.1751
  0
LINE
  8
0
 10
-40.0193
 20
-67.1751
 11
-40.1487
 21
-67.8257
  0
LINE
  8
0
 10
-40.1487
 20
-67.8257
 11
-40.5172
 21
-68.3772
  0
LINE
  8
0
 10
-40.5172
 20
-68.3772
 11
-41.0687
 21
-68.7457
  0
LINE
  8
0
 10
-41.0687
 20
-68.7457
 11
-41.7193
 21
-68.8751
  0
LINE
  8
0
 10
-41.7193
 20
-68.8751
 11
-42.3699
 21
-68.7457
  0
LINE
  8
0
 10
36.1494
 20
-82.6706
 11
35.5979
 21
-82.3021
  0
LINE
  8
0
 10
35.5979
 20
-82.3021
 11
35.2294
 21
-81.7505
  0
LINE
  8
0
 10
35.2294
 20
-81.7505
 11
35.1
 21
-81.1
  0
LINE
  8
0
 10
35.1
 20
-81.1
 11
35.2294
 21
-80.4494
  0
LINE
  8
0
 10
35.2294
 20
-80.4494
 11
35.5979
 21
-79.8979
  0
LINE
  8
0
 10
35.5979
 20
-79.8979
 11
36.1494
 21
-79.5294
  0
LINE
  8
0
 10
36.1494
 20
-79.5294
 11
36.8
 21
-79.4
  0
LINE
  8
0
 10
36.8
 20
-79.4
 11
37.4506
 21
-79.5294
  0
LINE
  8
0
 10
37.4506
 20
-79.5294
 11
38.0021
 21
-79.8979
  0
LINE
  8
0
 10
38.0021
 20
-79.8979
 11
38.3706
 21
-80.4494
  0
LINE
  8
0
 10
38.3706
 20
-80.4494
 11
38.5
 21
-81.1
  0
LINE
  8
0
 10
38.5
 20
-81.1
 11
38.3706
 21
-81.7505
  0
LINE
  8
0
 10
38.3706
 20
-81.7505
 11
38.0021
 21
-82.3021
  0
LINE
  8
0
 10
38.0021
 20
-82.3021
 11
37.4506
 21
-82.6706
  0
LINE
  8
0
 10
37.4506
 20
-82.6706
 11
36.8
 21
-82.8
  0
LINE
  8
0
 10
36.8
 20
-82.8
 11
36.1494
 21
-82.6706
  0
LINE
  8
0
 10
-15.9506
 20
-87.7706
 11
-16.5021
 21
-87.4021
  0
LINE
  8
0
 10
-16.5021
 20
-87.4021
 11
-16.8706
 21
-86.8506
  0
LINE
  8
0
 10
-16.8706
 20
-86.8506
 11
-17
 21
-86.2
  0
LINE
  8
0
 10
-17
 20
-86.2
 11
-16.8706
 21
-85.5494
  0
LINE
  8
0
 10
-16.8706
 20
-85.5494
 11
-16.5021
 21
-84.9979
  0
LINE
  8
0
 10
-16.5021
 20
-84.9979
 11
-15.9506
 21
-84.6294
  0
LINE
  8
0
 10
-15.9506
 20
-84.6294
 11
-15.3
 21
-84.5
  0
LINE
  8
0
 10
-15.3
 20
-84.5
 11
-14.881
 21
-84.5833
  0
LINE
  8
0
 10
-14.881
 20
-84.5833
 11
-14.6506
 21
-84.4294
  0
LINE
  8
0
 10
-14.6506
 20
-84.4294
 11
-14
 21
-84.3
  0
LINE
  8
0
 10
-14
 20
-84.3
 11
-13.3494
 21
-84.4294
  0
LINE
  8
0
 10
-13.3494
 20
-84.4294
 11
-12.7979
 21
-84.7979
  0
LINE
  8
0
 10
-12.7979
 20
-84.7979
 11
-12.4294
 21
-85.3494
  0
LINE
  8
0
 10
-12.4294
 20
-85.3494
 11
-12.3
 21
-86
  0
LINE
  8
0
 10
-12.3
 20
-86
 11
-12.4294
 21
-86.6506
  0
LINE
  8
0
 10
-12.4294
 20
-86.6506
 11
-12.7979
 21
-87.2021
  0
LINE
  8
0
 10
-12.7979
 20
-87.2021
 11
-13.3494
 21
-87.5706
  0
LINE
  8
0
 10
-13.3494
 20
-87.5706
 11
-14
 21
-87.7
  0
LINE
  8
0
 10
-14
 20
-87.7
 11
-14.419
 21
-87.6166
  0
LINE
  8
0
 10
-14.419
 20
-87.6166
 11
-14.6494
 21
-87.7706
  0
LINE
  8
0
 10
-14.6494
 20
-87.7706
 11
-15.3
 21
-87.9
  0
LINE
  8
0
 10
-15.3
 20
-87.9
 11
-15.9506
 21
-87.7706
  0
LINE
  8
0
 10
13.3494
 20
-87.5706
 11
12.7979
 21
-87.2021
  0
LINE
  8
0
 10
12.7979
 20
-87.2021
 11
12.4294
 21
-86.6506
  0
LINE
  8
0
 10
12.4294
 20
-86.6506
 11
12.3
 21
-86
  0
LINE
  8
0
 10
12.3
 20
-86
 11
12.4294
 21
-85.3494
  0
LINE
  8
0
 10
12.4294
 20
-85.3494
 11
12.7979
 21
-84.7979
  0
LINE
  8
0
 10
12.7979
 20
-84.7979
 11
13.3494
 21
-84.4294
  0
LINE
  8
0
 10
13.3494
 20
-84.4294
 11
14
 21
-84.3
  0
LINE
  8
0
 10
14
 20
-84.3
 11
14.6506
 21
-84.4294
  0
LINE
  8
0
 10
14.6506
 20
-84.4294
 11
15.2021
 21
-84.7979
  0
LINE
  8
0
 10
15.2021
 20
-84.7979
 11
15.5706
 21
-85.3494
  0
LINE
  8
0
 10
15.5706
 20
-85.3494
 11
15.7
 21
-86
  0
LINE
  8
0
 10
15.7
 20
-86
 11
15.5706
 21
-86.6506
  0
LINE
  8
0
 10
15.5706
 20
-86.6506
 11
15.2021
 21
-87.2021
  0
LINE
  8
0
 10
15.2021
 20
-87.2021
 11
14.6506
 21
-87.5706
  0
LINE
  8
0
 10
14.6506
 20
-87.5706
 11
14
 21
-87.7
  0
LINE
  8
0
 10
14
 20
-87.7
 11
13.3494
 21
-87.5706
  0
LINE
  8
0
 10
-0.650558
 20
-99.5706
 11
-1.20207
 21
-99.2021
  0
LINE
  8
0
 10
-1.20207
 20
-99.2021
 11
-1.57059
 21
-98.6506
  0
LINE
  8
0
 10
-1.57059
 20
-98.6506
 11
-1.7
 21
-98
  0
LINE
  8
0
 10
-1.7
 20
-98
 11
-1.57059
 21
-97.3494
  0
LINE
  8
0
 10
-1.57059
 20
-97.3494
 11
-1.20207
 21
-96.7979
  0
LINE
  8
0
 10
-1.20207
 20
-96.7979
 11
-0.650558
 21
-96.4294
  0
LINE
  8
0
 10
-0.650558
 20
-96.4294
 11
0
 21
-96.3
  0
LINE
  8
0
 10
0
 20
-96.3
 11
0.650558
 21
-96.4294
  0
LINE
  8
0
 10
0.650558
 20
-96.4294
 11
1.20207
 21
-96.7979
  0
LINE
  8
0
 10
1.20207
 20
-96.7979
 11
1.57059
 21
-97.3494
  0
LINE
  8
0
 10
1.57059
 20
-97.3494
 11
1.7
 21
-98
  0
LINE
  8
0
 10
1.7
 20
-98
 11
1.57059
 21
-98.6506
  0
LINE
  8
0
 10
1.57059
 20
-98.6506
 11
1.20207
 21
-99.2021
  0
LINE
  8
0
 10
1.20207
 20
-99.2021
 11
0.650558
 21
-99.5706
  0
LINE
  8
0
 10
0.650558
 20
-99.5706
 11
0
 21
-99.7
  0
LINE
  8
0
 10
0
 20
-99.7
 11
-0.650558
 21
-99.5706
  0
ENDSEC
  0
SECTION
  2
OBJECTS
  0
DICTIONARY
  0
ENDSEC
  0
EOF
